<svg fill="none" height="17" width="47" xmlns="http://www.w3.org/2000/svg"><clipPath id="a"><path d="M0 0h47v16.408H0z" transform="translate(0 .111)"/></clipPath><g clip-path="url(#a)"><path d="M2.667.111C1.193.111 0 1.288 0 2.741v11.15c0 1.452 1.193 2.629 2.667 2.629H13.98c1.473 0 2.666-1.177 2.666-2.629v-.114c-.05-.02-4.326-1.778-6.5-2.808-1.466 1.778-3.358 2.857-5.321 2.857-3.321 0-4.449-2.864-2.877-4.75.343-.412.926-.805 1.831-1.024 1.417-.344 3.671.213 5.782.9a11.32 11.32 0 0 0 .938-2.258H3.99v-.65h3.357V4.879H3.28v-.65h4.065V2.566s0-.28.288-.28h1.64v1.942h4.019v.65H9.274v1.165h3.28a13.093 13.093 0 0 1-1.388 3.459c.995.355 1.889.692 2.555.912 2.221.732 2.844.822 2.924.831V2.74c0-1.452-1.193-2.629-2.665-2.629H2.667zm1.825 8.89a5.21 5.21 0 0 0-.43.024c-.416.04-1.197.221-1.624.594-1.279 1.1-.513 3.11 2.076 3.11 1.505 0 3.01-.948 4.191-2.467-1.523-.732-2.835-1.276-4.212-1.26z" fill="#00a1e9"/><path d="M45.597 11.518l-.743 1.595-.754-1.595h-.736l1.147 2.205v1.538h.675v-1.538l.005-.009 1.142-2.196zm-5.44.965l.524 1.553h-1.067zm.685 2.024l.253.754h.708l-1.395-3.744h-.541l-1.39 3.744h.709l.263-.754zm-5.286-1.2h-.752v-1.28h.752c.378 0 .604.326.604.642 0 .31-.211.638-.604.638zm.038-1.79h-1.472v3.744h.68v-1.44h.79c.735 0 1.248-.473 1.248-1.152 0-.678-.513-1.152-1.247-1.152zm-4.915 3.745h.682v-3.744h-.682v3.743zm-4.791-3.744v3.743h2.293v-.51h-1.612v-3.233zm-3.88.965l.523 1.553h-1.066zm.685 2.024l.252.754h.708l-1.394-3.744h-.541l-1.39 3.744h.708l.263-.754zm4.795-10.309h-2.922V3.163h3.388v-.645h-3.388V1.206h-1.51a.305.305 0 0 0-.3.308v1.005h-3.364v.645h3.365v1.035h-2.84v.644h5.656s-.313 1.21-1.865 2.51c-1.39-1.04-1.854-1.869-1.854-1.869h-1.517c.614 1.052 1.485 1.894 2.425 2.562-.863.555-1.982 1.089-3.428 1.516v.773s2.232-.416 4.39-1.673c2.159 1.246 4.33 1.673 4.33 1.673v-.73c-1.39-.5-2.49-1.05-3.354-1.58 1.251-.916 2.348-2.16 2.788-3.825v-.002zm9.491-2.86h-1.52v1.571h-3.75v.633h3.75V9.19a.26.26 0 0 1-.245.237h-.774v.655h1.971a.599.599 0 0 0 .568-.586V3.54h.617v-.633h-.617v-1.57zm-3.207 3.268a.337.337 0 0 0-.301-.19h-1.267l.987 3.073h1.499zm-3.743-3.344l-1.745 4.079h1.338v4.854h1.465V3.757h-.53l1.102-2.495h-1.63zm16.97 8.71l-.534-1.784a.277.277 0 0 0-.263-.197h-1.417l.41 1.37H43.53V6.706h3.27v-.632h-3.272v-1.25H46.8V4.19h-8.165v.633h3.272v1.25h-3.272v.632h3.272v2.657h-3.272v.632H47l-.007-.022H47zm-6.662-7.29h4.765v.933h1.702V2.504a.448.448 0 0 0-.44-.453h-2.756v-.87h-1.78v.87h-3.192v1.564h1.701v-.932z" fill="#3f3b3a"/></g></svg>