<svg fill="none" height="17" width="39" xmlns="http://www.w3.org/2000/svg"><path d="M7.12 2.174c-.457.54-1.187.967-1.918.906-.091-.731.266-1.507.685-1.987C6.344.537 7.143.142 7.79.111c.076.761-.22 1.507-.67 2.063zm.662 1.05c-1.058-.06-1.963.602-2.466.602-.51 0-1.279-.571-2.116-.556-1.088.015-2.1.632-2.656 1.614-1.142 1.964-.297 4.871.806 6.47.54.791 1.188 1.66 2.04 1.629.807-.03 1.127-.526 2.101-.526.982 0 1.264.526 2.116.51.883-.015 1.439-.791 1.98-1.583.616-.898.867-1.773.882-1.819-.015-.015-1.705-.662-1.72-2.61-.015-1.63 1.332-2.406 1.393-2.452-.761-1.126-1.949-1.248-2.36-1.279zm6.113-2.207v11.867h1.842V8.827h2.55c2.329 0 3.965-1.599 3.965-3.913s-1.606-3.897-3.904-3.897zm1.842 1.553h2.123c1.599 0 2.512.852 2.512 2.352s-.913 2.36-2.52 2.36h-2.115zm9.88 10.405c1.157 0 2.23-.586 2.717-1.515h.038v1.424h1.705V6.977c0-1.713-1.37-2.816-3.478-2.816-1.957 0-3.403 1.119-3.456 2.656h1.66c.136-.73.814-1.21 1.742-1.21 1.127 0 1.759.525 1.759 1.492v.654l-2.299.137c-2.139.13-3.296 1.005-3.296 2.528 0 1.537 1.195 2.557 2.908 2.557zm.495-1.408c-.982 0-1.606-.472-1.606-1.195 0-.746.6-1.18 1.75-1.249l2.048-.129v.67c0 1.111-.944 1.903-2.192 1.903zm6.241 4.544c1.797 0 2.642-.685 3.38-2.763l3.235-9.073h-1.873l-2.169 7.01h-.038l-2.17-7.01h-1.925l3.12 8.64-.167.524c-.281.891-.738 1.233-1.553 1.233-.144 0-.426-.015-.54-.03v1.423c.107.03.563.046.7.046z" fill="#000"/></svg>