<svg fill="none" height="17" width="41" xmlns="http://www.w3.org/2000/svg"><path d="M19.05 7.927v4.692h-1.487V1.035h3.945a3.586 3.586 0 0 1 2.558 1.007 3.193 3.193 0 0 1 1.063 2.439 3.233 3.233 0 0 1-1.063 2.457c-.692.656-1.542.989-2.55.989zm0-5.47v4.047h2.494a1.945 1.945 0 0 0 1.47-.6 1.971 1.971 0 0 0 .036-2.79l-.037-.037a1.92 1.92 0 0 0-1.469-.61zm9.506 1.978c1.1 0 1.967.295 2.605.877.637.592.951 1.395.951 2.42v4.878H30.69v-1.1h-.065c-.619.906-1.432 1.359-2.457 1.359-.869 0-1.607-.259-2.19-.776a2.45 2.45 0 0 1-.877-1.94c0-.822.314-1.469.933-1.959s1.45-.73 2.485-.73c.887 0 1.607.167 2.18.481v-.342c0-.508-.222-.988-.61-1.311a2.162 2.162 0 0 0-1.432-.545c-.831 0-1.487.35-1.976 1.053l-1.312-.823c.711-1.025 1.773-1.542 3.187-1.542zm-1.922 5.755c0 .388.185.748.49.97a1.82 1.82 0 0 0 1.155.388c.628 0 1.228-.25 1.672-.693.49-.462.739-1.007.739-1.635-.462-.37-1.109-.554-1.94-.554-.6 0-1.109.147-1.515.434-.397.295-.6.656-.6 1.09zm13.644-5.497l-4.97 11.418h-1.533l1.848-3.99-3.27-7.418h1.616l2.356 5.69h.037l2.3-5.69z" fill="#5f6368"/><path d="M13.037 6.91a8.2 8.2 0 0 0-.111-1.348H6.653V8.12h3.594a3.08 3.08 0 0 1-1.33 2.023v1.662h2.143c1.256-1.154 1.976-2.863 1.976-4.895z" fill="#4285f4"/><path d="M6.653 13.414c1.793 0 3.308-.591 4.407-1.608l-2.143-1.662c-.6.406-1.368.637-2.264.637-1.736 0-3.205-1.173-3.732-2.744H.714v1.719a6.66 6.66 0 0 0 5.94 3.658z" fill="#34a853"/><path d="M2.921 8.037a4.013 4.013 0 0 1 0-2.55V3.78H.714a6.595 6.595 0 0 0 0 5.967l2.206-1.71z" fill="#fbbc04"/><path d="M6.653 2.744a3.58 3.58 0 0 1 2.55.998l1.894-1.894A6.35 6.35 0 0 0 6.653.112a6.652 6.652 0 0 0-5.94 3.667l2.208 1.718c.527-1.58 1.996-2.753 3.732-2.753z" fill="#ea4335"/></svg>