<svg fill="none" height="15" width="47" xmlns="http://www.w3.org/2000/svg"><g clip-rule="evenodd" fill-rule="evenodd"><path d="M0 .111l5.838 14.515 8.139-9.795-2.882-2.688zm2.07 1.156l7.999 1.451-3.08 2.56-4.92-4.011zm-.538.537l5.102 4.183-.817 6.515zm9.386 1.215l1.699 1.613-4.645.812zM7.354 6.331l5.14-.92-5.914 7.097z" fill="#c63127"/><g fill="#151515"><path d="M29.91 7.046a1.887 1.887 0 0 0 .538-1.446 2.017 2.017 0 0 0-1.957-2.193H24.31v6.918h.688v-6.23h3.462A1.392 1.392 0 0 1 29.787 5.6a1.235 1.235 0 0 1-.344.962 1.818 1.818 0 0 1-1.2.387h-2.73v3.376h.688V7.637h2.021l1.613 2.688h.806l-1.666-2.79c.35-.08.674-.248.94-.489m-11.154 3.257h.683V5.557h-.683zm-2.172-6.22h6.156v-.677h-6.156v.678zm3.37 6.22h.689V5.558h-.688v4.747zm22.047-.032h.694V7.766h-.694z"/><path d="M46.306 3.45v5.536L40.758 2.73v7.532h.694V4.77l5.547 6.264V3.449h-.693zm-10.52 6.182a2.8 2.8 0 1 1 2.833-2.801 2.822 2.822 0 0 1-2.833 2.8zm0-6.29a3.489 3.489 0 1 0 3.526 3.489 3.516 3.516 0 0 0-3.526-3.494"/><path d="M35.78 6.283a.473.473 0 1 0 .011.946.473.473 0 0 0-.01-.946z"/></g></g></svg>